<svg width="150" height="45" viewBox="0 0 150 45" fill="none" xmlns="http://www.w3.org/2000/svg">
<rect width="150" height="45" /> <!-- fill="white" -->
<g filter="url(#filter0_d_112_9740)">
<path d="M47.596 27.14C47.428 27.14 47.2973 27.112 47.204 27.056C47.12 27 47.0593 26.9253 47.022 26.832C46.9847 26.7293 46.966 26.6173 46.966 26.496V17.984C46.966 17.8627 46.9847 17.76 47.022 17.676C47.0593 17.5827 47.1247 17.508 47.218 17.452C47.3113 17.396 47.4467 17.368 47.624 17.368C47.764 17.368 47.876 17.3773 47.96 17.396C48.044 17.4147 48.1093 17.4427 48.156 17.48C48.212 17.508 48.268 17.5547 48.324 17.62L51.978 22.912H51.544L55.24 17.578C55.296 17.5127 55.352 17.466 55.408 17.438C55.464 17.41 55.534 17.3913 55.618 17.382C55.7113 17.3727 55.8187 17.368 55.94 17.368C56.1173 17.368 56.248 17.396 56.332 17.452C56.4253 17.508 56.4907 17.5873 56.528 17.69C56.5653 17.7833 56.584 17.8907 56.584 18.012V26.524C56.584 26.636 56.5653 26.7387 56.528 26.832C56.4907 26.9253 56.4253 27 56.332 27.056C56.2387 27.112 56.1033 27.14 55.926 27.14C55.758 27.14 55.6273 27.112 55.534 27.056C55.45 27 55.3893 26.9253 55.352 26.832C55.324 26.7293 55.31 26.6173 55.31 26.496V19.468L52.314 23.878C52.286 23.9247 52.2487 23.9713 52.202 24.018C52.1553 24.0553 52.0947 24.088 52.02 24.116C51.9547 24.144 51.8707 24.158 51.768 24.158C51.656 24.158 51.5673 24.144 51.502 24.116C51.446 24.088 51.3947 24.0553 51.348 24.018C51.3013 23.9713 51.2547 23.92 51.208 23.864L48.226 19.482V26.524C48.226 26.636 48.2073 26.7387 48.17 26.832C48.142 26.9253 48.0813 27 47.988 27.056C47.904 27.112 47.7733 27.14 47.596 27.14ZM63.7467 27.238C63.0841 27.238 62.4587 27.112 61.8707 26.86C61.2921 26.608 60.7787 26.258 60.3307 25.81C59.8921 25.3527 59.5467 24.83 59.2947 24.242C59.0427 23.654 58.9167 23.0193 58.9167 22.338C58.9167 21.6473 59.0381 20.9987 59.2807 20.392C59.5234 19.776 59.8594 19.2393 60.2887 18.782C60.7274 18.3247 61.2314 17.9653 61.8007 17.704C62.3701 17.4427 62.9767 17.312 63.6207 17.312C64.2927 17.312 64.9181 17.438 65.4967 17.69C66.0847 17.942 66.5934 18.2967 67.0227 18.754C67.4614 19.202 67.8067 19.7293 68.0587 20.336C68.3107 20.9427 68.4367 21.5913 68.4367 22.282C68.4367 22.9633 68.3107 23.6027 68.0587 24.2C67.8161 24.788 67.4801 25.3153 67.0507 25.782C66.6214 26.2393 66.1221 26.5987 65.5527 26.86C64.9927 27.112 64.3907 27.238 63.7467 27.238ZM63.6627 25.964C64.1481 25.964 64.6007 25.8707 65.0207 25.684C65.4501 25.4973 65.8234 25.236 66.1407 24.9C66.4581 24.5547 66.7054 24.1627 66.8827 23.724C67.0694 23.276 67.1627 22.7907 67.1627 22.268C67.1627 21.764 67.0694 21.2927 66.8827 20.854C66.7054 20.406 66.4534 20.014 66.1267 19.678C65.8094 19.3327 65.4407 19.062 65.0207 18.866C64.6007 18.67 64.1527 18.572 63.6767 18.572C63.2007 18.572 62.7527 18.67 62.3327 18.866C61.9127 19.062 61.5394 19.328 61.2127 19.664C60.8954 20 60.6434 20.392 60.4567 20.84C60.2794 21.288 60.1907 21.7687 60.1907 22.282C60.1907 22.786 60.2794 23.262 60.4567 23.71C60.6434 24.158 60.8954 24.55 61.2127 24.886C61.5394 25.222 61.9081 25.488 62.3187 25.684C62.7387 25.8707 63.1867 25.964 63.6627 25.964ZM71.3186 27.14C71.132 27.14 70.992 27.112 70.8986 27.056C70.8146 27.0093 70.7586 26.9393 70.7306 26.846C70.7026 26.7433 70.6886 26.6267 70.6886 26.496V17.998C70.6886 17.8673 70.7026 17.7553 70.7306 17.662C70.768 17.5687 70.8286 17.4987 70.9126 17.452C71.006 17.396 71.146 17.368 71.3326 17.368C71.5193 17.368 71.6546 17.396 71.7386 17.452C71.832 17.4987 71.888 17.5687 71.9066 17.662C71.9346 17.7553 71.9486 17.872 71.9486 18.012V26.51C71.9486 26.6407 71.9346 26.7527 71.9066 26.846C71.8786 26.9393 71.818 27.0093 71.7246 27.056C71.6406 27.112 71.5053 27.14 71.3186 27.14ZM75.3678 27.14C75.2091 27.14 75.0831 27.112 74.9898 27.056C74.9058 27 74.8451 26.9253 74.8078 26.832C74.7705 26.7293 74.7518 26.6173 74.7518 26.496V17.984C74.7518 17.8627 74.7658 17.7553 74.7938 17.662C74.8311 17.5687 74.8965 17.494 74.9898 17.438C75.0831 17.382 75.2138 17.354 75.3818 17.354L78.1398 17.368C78.8305 17.368 79.4558 17.4847 80.0158 17.718C80.5851 17.942 81.0705 18.264 81.4718 18.684C81.8731 19.104 82.1811 19.6127 82.3958 20.21C82.6105 20.8073 82.7178 21.47 82.7178 22.198C82.7178 22.954 82.6105 23.6353 82.3958 24.242C82.1811 24.8487 81.8685 25.3667 81.4578 25.796C81.0565 26.2253 80.5711 26.5567 80.0018 26.79C79.4325 27.0233 78.7978 27.14 78.0978 27.14H75.3678ZM76.0118 25.866H78.1398C78.8211 25.866 79.4091 25.7213 79.9038 25.432C80.3985 25.1333 80.7811 24.718 81.0518 24.186C81.3225 23.6447 81.4578 23.0053 81.4578 22.268C81.4578 21.5213 81.3225 20.8773 81.0518 20.336C80.7811 19.7947 80.3938 19.3793 79.8898 19.09C79.3951 18.7913 78.8071 18.642 78.1258 18.642H76.0118V25.866ZM86.0472 27.14C85.8605 27.14 85.7205 27.112 85.6272 27.056C85.5432 27.0093 85.4872 26.9393 85.4592 26.846C85.4312 26.7433 85.4172 26.6267 85.4172 26.496V17.998C85.4172 17.8673 85.4312 17.7553 85.4592 17.662C85.4965 17.5687 85.5572 17.4987 85.6412 17.452C85.7345 17.396 85.8745 17.368 86.0612 17.368C86.2478 17.368 86.3832 17.396 86.4672 17.452C86.5605 17.4987 86.6165 17.5687 86.6352 17.662C86.6632 17.7553 86.6772 17.872 86.6772 18.012V26.51C86.6772 26.6407 86.6632 26.7527 86.6352 26.846C86.6072 26.9393 86.5465 27.0093 86.4532 27.056C86.3692 27.112 86.2338 27.14 86.0472 27.14ZM101.077 27.14C100.9 27.14 100.764 27.112 100.671 27.056C100.587 27.0093 100.531 26.9393 100.503 26.846C100.475 26.7433 100.461 26.6267 100.461 26.496V17.998C100.461 17.8673 100.475 17.7553 100.503 17.662C100.531 17.5687 100.592 17.4987 100.685 17.452C100.778 17.396 100.914 17.368 101.091 17.368C101.278 17.368 101.413 17.396 101.497 17.452C101.59 17.4987 101.651 17.5687 101.679 17.662C101.707 17.7553 101.721 17.872 101.721 18.012V26.51C101.721 26.6407 101.702 26.7527 101.665 26.846C101.637 26.9393 101.576 27.0093 101.483 27.056C101.399 27.112 101.264 27.14 101.077 27.14ZM94.777 27.14C94.5903 27.14 94.4503 27.112 94.357 27.056C94.273 27.0093 94.217 26.9393 94.189 26.846C94.161 26.7433 94.147 26.6267 94.147 26.496V17.998C94.147 17.8673 94.161 17.7553 94.189 17.662C94.2263 17.5687 94.287 17.4987 94.371 17.452C94.4643 17.396 94.6043 17.368 94.791 17.368C94.9683 17.368 95.099 17.396 95.183 17.452C95.2763 17.4987 95.337 17.5687 95.365 17.662C95.393 17.7553 95.407 17.872 95.407 18.012V26.51C95.407 26.6407 95.393 26.7527 95.365 26.846C95.337 26.9393 95.2763 27.0093 95.183 27.056C95.0897 27.112 94.9543 27.14 94.777 27.14ZM94.833 22.716V21.54H100.685L100.671 22.716H94.833ZM108.93 27.238C108.268 27.238 107.642 27.112 107.054 26.86C106.476 26.608 105.962 26.258 105.514 25.81C105.076 25.3527 104.73 24.83 104.478 24.242C104.226 23.654 104.1 23.0193 104.1 22.338C104.1 21.6473 104.222 20.9987 104.464 20.392C104.707 19.776 105.043 19.2393 105.472 18.782C105.911 18.3247 106.415 17.9653 106.984 17.704C107.554 17.4427 108.16 17.312 108.804 17.312C109.476 17.312 110.102 17.438 110.68 17.69C111.268 17.942 111.777 18.2967 112.206 18.754C112.645 19.202 112.99 19.7293 113.242 20.336C113.494 20.9427 113.62 21.5913 113.62 22.282C113.62 22.9633 113.494 23.6027 113.242 24.2C113 24.788 112.664 25.3153 112.234 25.782C111.805 26.2393 111.306 26.5987 110.736 26.86C110.176 27.112 109.574 27.238 108.93 27.238ZM108.846 25.964C109.332 25.964 109.784 25.8707 110.204 25.684C110.634 25.4973 111.007 25.236 111.324 24.9C111.642 24.5547 111.889 24.1627 112.066 23.724C112.253 23.276 112.346 22.7907 112.346 22.268C112.346 21.764 112.253 21.2927 112.066 20.854C111.889 20.406 111.637 20.014 111.31 19.678C110.993 19.3327 110.624 19.062 110.204 18.866C109.784 18.67 109.336 18.572 108.86 18.572C108.384 18.572 107.936 18.67 107.516 18.866C107.096 19.062 106.723 19.328 106.396 19.664C106.079 20 105.827 20.392 105.64 20.84C105.463 21.288 105.374 21.7687 105.374 22.282C105.374 22.786 105.463 23.262 105.64 23.71C105.827 24.158 106.079 24.55 106.396 24.886C106.723 25.222 107.092 25.488 107.502 25.684C107.922 25.8707 108.37 25.964 108.846 25.964ZM119.96 27.182C119.335 27.182 118.775 27.0747 118.28 26.86C117.795 26.636 117.38 26.328 117.034 25.936C116.698 25.5347 116.442 25.0633 116.264 24.522C116.087 23.9713 115.998 23.374 115.998 22.73V17.998C115.998 17.8673 116.012 17.7553 116.04 17.662C116.078 17.5687 116.138 17.4987 116.222 17.452C116.316 17.396 116.456 17.368 116.642 17.368C116.829 17.368 116.969 17.396 117.062 17.452C117.156 17.4987 117.216 17.5687 117.244 17.662C117.272 17.7553 117.286 17.872 117.286 18.012V22.73C117.286 23.3553 117.389 23.906 117.594 24.382C117.8 24.858 118.103 25.236 118.504 25.516C118.906 25.7867 119.405 25.922 120.002 25.922C120.562 25.922 121.043 25.7913 121.444 25.53C121.846 25.2687 122.154 24.9 122.368 24.424C122.583 23.948 122.69 23.3787 122.69 22.716V17.914C122.69 17.802 122.704 17.7087 122.732 17.634C122.77 17.55 122.835 17.4847 122.928 17.438C123.022 17.3913 123.162 17.368 123.348 17.368C123.526 17.368 123.656 17.396 123.74 17.452C123.834 17.4987 123.894 17.5687 123.922 17.662C123.95 17.7553 123.964 17.872 123.964 18.012V22.758C123.964 23.4113 123.876 24.0087 123.698 24.55C123.521 25.082 123.26 25.5487 122.914 25.95C122.578 26.342 122.158 26.6453 121.654 26.86C121.16 27.0747 120.595 27.182 119.96 27.182ZM129.341 27.28C128.986 27.28 128.65 27.238 128.333 27.154C128.025 27.07 127.74 26.958 127.479 26.818C127.227 26.6687 127.003 26.5053 126.807 26.328C126.611 26.1507 126.457 25.9733 126.345 25.796C126.242 25.6467 126.177 25.5253 126.149 25.432C126.121 25.3293 126.126 25.2313 126.163 25.138C126.21 25.0447 126.298 24.942 126.429 24.83C126.578 24.718 126.709 24.6667 126.821 24.676C126.933 24.676 127.036 24.718 127.129 24.802C127.232 24.886 127.334 24.998 127.437 25.138C127.67 25.4553 127.955 25.6887 128.291 25.838C128.627 25.978 128.958 26.048 129.285 26.048C129.705 26.048 130.078 25.992 130.405 25.88C130.732 25.768 130.988 25.6 131.175 25.376C131.371 25.1427 131.469 24.844 131.469 24.48C131.469 24.1813 131.394 23.9293 131.245 23.724C131.096 23.5187 130.895 23.346 130.643 23.206C130.391 23.0567 130.111 22.9307 129.803 22.828C129.495 22.716 129.182 22.6087 128.865 22.506C128.613 22.422 128.366 22.3287 128.123 22.226C127.88 22.114 127.652 21.9927 127.437 21.862C127.222 21.722 127.031 21.5587 126.863 21.372C126.704 21.1853 126.578 20.966 126.485 20.714C126.401 20.462 126.359 20.168 126.359 19.832C126.359 19.3187 126.48 18.866 126.723 18.474C126.975 18.082 127.325 17.7787 127.773 17.564C128.221 17.34 128.739 17.228 129.327 17.228C129.672 17.228 129.99 17.2607 130.279 17.326C130.568 17.3913 130.825 17.48 131.049 17.592C131.273 17.6947 131.464 17.8067 131.623 17.928C131.782 18.04 131.903 18.1473 131.987 18.25C132.155 18.4273 132.248 18.5767 132.267 18.698C132.286 18.8193 132.216 18.9687 132.057 19.146C131.908 19.314 131.763 19.4027 131.623 19.412C131.483 19.4213 131.329 19.356 131.161 19.216C130.984 19.0107 130.797 18.852 130.601 18.74C130.414 18.628 130.214 18.5533 129.999 18.516C129.794 18.4693 129.565 18.446 129.313 18.446C129.07 18.446 128.842 18.4787 128.627 18.544C128.422 18.6 128.24 18.6887 128.081 18.81C127.932 18.9313 127.815 19.0807 127.731 19.258C127.647 19.426 127.605 19.622 127.605 19.846C127.605 20.098 127.67 20.3127 127.801 20.49C127.941 20.6673 128.123 20.8213 128.347 20.952C128.571 21.0733 128.823 21.1853 129.103 21.288C129.383 21.3813 129.677 21.4747 129.985 21.568C130.321 21.6707 130.652 21.7967 130.979 21.946C131.306 22.086 131.6 22.2633 131.861 22.478C132.122 22.6833 132.332 22.9447 132.491 23.262C132.65 23.5793 132.729 23.9713 132.729 24.438C132.729 24.9047 132.636 25.3153 132.449 25.67C132.272 26.0247 132.024 26.3233 131.707 26.566C131.39 26.7993 131.026 26.9767 130.615 27.098C130.214 27.2193 129.789 27.28 129.341 27.28ZM135.993 27.14C135.806 27.14 135.666 27.112 135.573 27.056C135.489 27.0093 135.433 26.9393 135.405 26.846C135.377 26.7433 135.363 26.6267 135.363 26.496V17.998C135.363 17.7553 135.409 17.592 135.503 17.508C135.605 17.4147 135.783 17.368 136.035 17.368H141.663C141.793 17.368 141.905 17.382 141.999 17.41C142.092 17.438 142.162 17.4987 142.209 17.592C142.255 17.6853 142.279 17.8253 142.279 18.012C142.279 18.1987 142.251 18.3387 142.195 18.432C142.148 18.516 142.078 18.572 141.985 18.6C141.891 18.628 141.779 18.642 141.649 18.642H136.623V21.54H140.123C140.253 21.54 140.361 21.554 140.445 21.582C140.538 21.61 140.608 21.666 140.655 21.75C140.701 21.834 140.725 21.9647 140.725 22.142C140.725 22.31 140.701 22.436 140.655 22.52C140.608 22.604 140.538 22.66 140.445 22.688C140.351 22.7067 140.235 22.716 140.095 22.716H136.623V25.88H141.663C141.793 25.88 141.905 25.894 141.999 25.922C142.092 25.95 142.162 26.0107 142.209 26.104C142.255 26.188 142.279 26.3233 142.279 26.51C142.279 26.6967 142.251 26.8367 142.195 26.93C142.148 27.014 142.078 27.07 141.985 27.098C141.891 27.126 141.779 27.14 141.649 27.14H135.993Z" fill="black"/>
</g>
<g filter="url(#filter1_d_112_9740)">
<path d="M34.952 36.14C34.7747 36.14 34.6393 36.112 34.546 36.056C34.462 36.0093 34.406 35.9393 34.378 35.846C34.35 35.7433 34.336 35.6267 34.336 35.496V26.998C34.336 26.8673 34.35 26.7553 34.378 26.662C34.406 26.5687 34.4667 26.4987 34.56 26.452C34.6533 26.396 34.7887 26.368 34.966 26.368C35.1527 26.368 35.288 26.396 35.372 26.452C35.4653 26.4987 35.526 26.5687 35.554 26.662C35.582 26.7553 35.596 26.872 35.596 27.012V35.51C35.596 35.6407 35.5773 35.7527 35.54 35.846C35.512 35.9393 35.4513 36.0093 35.358 36.056C35.274 36.112 35.1387 36.14 34.952 36.14ZM28.652 36.14C28.4653 36.14 28.3253 36.112 28.232 36.056C28.148 36.0093 28.092 35.9393 28.064 35.846C28.036 35.7433 28.022 35.6267 28.022 35.496V26.998C28.022 26.8673 28.036 26.7553 28.064 26.662C28.1013 26.5687 28.162 26.4987 28.246 26.452C28.3393 26.396 28.4793 26.368 28.666 26.368C28.8433 26.368 28.974 26.396 29.058 26.452C29.1513 26.4987 29.212 26.5687 29.24 26.662C29.268 26.7553 29.282 26.872 29.282 27.012V35.51C29.282 35.6407 29.268 35.7527 29.24 35.846C29.212 35.9393 29.1513 36.0093 29.058 36.056C28.9647 36.112 28.8293 36.14 28.652 36.14ZM28.708 31.716V30.54H34.56L34.546 31.716H28.708Z" fill="black"/>
</g>
<g filter="url(#filter2_d_112_9740)">
<path d="M8.596 18.14C8.428 18.14 8.29733 18.112 8.204 18.056C8.12 18 8.05933 17.9253 8.022 17.832C7.98467 17.7293 7.966 17.6173 7.966 17.496V8.984C7.966 8.86267 7.98467 8.76 8.022 8.676C8.05933 8.58267 8.12467 8.508 8.218 8.452C8.31133 8.396 8.44667 8.368 8.624 8.368C8.764 8.368 8.876 8.37733 8.96 8.396C9.044 8.41467 9.10933 8.44267 9.156 8.48C9.212 8.508 9.268 8.55467 9.324 8.62L12.978 13.912H12.544L16.24 8.578C16.296 8.51267 16.352 8.466 16.408 8.438C16.464 8.41 16.534 8.39133 16.618 8.382C16.7113 8.37267 16.8187 8.368 16.94 8.368C17.1173 8.368 17.248 8.396 17.332 8.452C17.4253 8.508 17.4907 8.58733 17.528 8.69C17.5653 8.78333 17.584 8.89067 17.584 9.012V17.524C17.584 17.636 17.5653 17.7387 17.528 17.832C17.4907 17.9253 17.4253 18 17.332 18.056C17.2387 18.112 17.1033 18.14 16.926 18.14C16.758 18.14 16.6273 18.112 16.534 18.056C16.45 18 16.3893 17.9253 16.352 17.832C16.324 17.7293 16.31 17.6173 16.31 17.496V10.468L13.314 14.878C13.286 14.9247 13.2487 14.9713 13.202 15.018C13.1553 15.0553 13.0947 15.088 13.02 15.116C12.9547 15.144 12.8707 15.158 12.768 15.158C12.656 15.158 12.5673 15.144 12.502 15.116C12.446 15.088 12.3947 15.0553 12.348 15.018C12.3013 14.9713 12.2547 14.92 12.208 14.864L9.226 10.482V17.524C9.226 17.636 9.20733 17.7387 9.17 17.832C9.142 17.9253 9.08133 18 8.988 18.056C8.904 18.112 8.77333 18.14 8.596 18.14Z" fill="black"/>
</g>
<rect x="5.5" y="5.5" width="34" height="33" stroke="black"/>
<g filter="url(#filter3_d_112_9740)">
<path d="M12.194 36.238C11.5313 36.238 10.906 36.112 10.318 35.86C9.73933 35.608 9.226 35.258 8.778 34.81C8.33933 34.3527 7.994 33.83 7.742 33.242C7.49 32.654 7.364 32.0193 7.364 31.338C7.364 30.6473 7.48533 29.9987 7.728 29.392C7.97067 28.776 8.30667 28.2393 8.736 27.782C9.17467 27.3247 9.67867 26.9653 10.248 26.704C10.8173 26.4427 11.424 26.312 12.068 26.312C12.74 26.312 13.3653 26.438 13.944 26.69C14.532 26.942 15.0407 27.2967 15.47 27.754C15.9087 28.202 16.254 28.7293 16.506 29.336C16.758 29.9427 16.884 30.5913 16.884 31.282C16.884 31.9633 16.758 32.6027 16.506 33.2C16.2633 33.788 15.9273 34.3153 15.498 34.782C15.0687 35.2393 14.5693 35.5987 14 35.86C13.44 36.112 12.838 36.238 12.194 36.238ZM12.11 34.964C12.5953 34.964 13.048 34.8707 13.468 34.684C13.8973 34.4973 14.2707 34.236 14.588 33.9C14.9053 33.5547 15.1527 33.1627 15.33 32.724C15.5167 32.276 15.61 31.7907 15.61 31.268C15.61 30.764 15.5167 30.2927 15.33 29.854C15.1527 29.406 14.9007 29.014 14.574 28.678C14.2567 28.3327 13.888 28.062 13.468 27.866C13.048 27.67 12.6 27.572 12.124 27.572C11.648 27.572 11.2 27.67 10.78 27.866C10.36 28.062 9.98667 28.328 9.66 28.664C9.34267 29 9.09067 29.392 8.904 29.84C8.72667 30.288 8.638 30.7687 8.638 31.282C8.638 31.786 8.72667 32.262 8.904 32.71C9.09067 33.158 9.34267 33.55 9.66 33.886C9.98667 34.222 10.3553 34.488 10.766 34.684C11.186 34.8707 11.634 34.964 12.11 34.964Z" fill="black"/>
</g>
<g filter="url(#filter4_d_112_9740)">
<path d="M32.194 18.238C31.5313 18.238 30.906 18.112 30.318 17.86C29.7393 17.608 29.226 17.258 28.778 16.81C28.3393 16.3527 27.994 15.83 27.742 15.242C27.49 14.654 27.364 14.0193 27.364 13.338C27.364 12.6473 27.4853 11.9987 27.728 11.392C27.9707 10.776 28.3067 10.2393 28.736 9.782C29.1747 9.32467 29.6787 8.96533 30.248 8.704C30.8173 8.44267 31.424 8.312 32.068 8.312C32.74 8.312 33.3653 8.438 33.944 8.69C34.532 8.942 35.0407 9.29667 35.47 9.754C35.9087 10.202 36.254 10.7293 36.506 11.336C36.758 11.9427 36.884 12.5913 36.884 13.282C36.884 13.9633 36.758 14.6027 36.506 15.2C36.2633 15.788 35.9273 16.3153 35.498 16.782C35.0687 17.2393 34.5693 17.5987 34 17.86C33.44 18.112 32.838 18.238 32.194 18.238ZM32.11 16.964C32.5953 16.964 33.048 16.8707 33.468 16.684C33.8973 16.4973 34.2707 16.236 34.588 15.9C34.9053 15.5547 35.1527 15.1627 35.33 14.724C35.5167 14.276 35.61 13.7907 35.61 13.268C35.61 12.764 35.5167 12.2927 35.33 11.854C35.1527 11.406 34.9007 11.014 34.574 10.678C34.2567 10.3327 33.888 10.062 33.468 9.866C33.048 9.67 32.6 9.572 32.124 9.572C31.648 9.572 31.2 9.67 30.78 9.866C30.36 10.062 29.9867 10.328 29.66 10.664C29.3427 11 29.0907 11.392 28.904 11.84C28.7267 12.288 28.638 12.7687 28.638 13.282C28.638 13.786 28.7267 14.262 28.904 14.71C29.0907 15.158 29.3427 15.55 29.66 15.886C29.9867 16.222 30.3553 16.488 30.766 16.684C31.186 16.8707 31.634 16.964 32.11 16.964Z" fill="black"/>
</g>
<defs>
<filter id="filter0_d_112_9740" x="46.9658" y="17.228" width="95.313" height="11.052" filterUnits="userSpaceOnUse" color-interpolation-filters="sRGB">
<feFlood flood-opacity="0" result="BackgroundImageFix"/>
<feColorMatrix in="SourceAlpha" type="matrix" values="0 0 0 0 0 0 0 0 0 0 0 0 0 0 0 0 0 0 127 0" result="hardAlpha"/>
<feOffset dy="1"/>
<feColorMatrix type="matrix" values="0 0 0 0 0.898039 0 0 0 0 0.913725 0 0 0 0 0.94902 0 0 0 1 0"/>
<feBlend mode="normal" in2="BackgroundImageFix" result="effect1_dropShadow_112_9740"/>
<feBlend mode="normal" in="SourceGraphic" in2="effect1_dropShadow_112_9740" result="shape"/>
</filter>
<filter id="filter1_d_112_9740" x="28.022" y="26.3679" width="7.57422" height="10.772" filterUnits="userSpaceOnUse" color-interpolation-filters="sRGB">
<feFlood flood-opacity="0" result="BackgroundImageFix"/>
<feColorMatrix in="SourceAlpha" type="matrix" values="0 0 0 0 0 0 0 0 0 0 0 0 0 0 0 0 0 0 127 0" result="hardAlpha"/>
<feOffset dy="1"/>
<feColorMatrix type="matrix" values="0 0 0 0 0.898039 0 0 0 0 0.913725 0 0 0 0 0.94902 0 0 0 1 0"/>
<feBlend mode="normal" in2="BackgroundImageFix" result="effect1_dropShadow_112_9740"/>
<feBlend mode="normal" in="SourceGraphic" in2="effect1_dropShadow_112_9740" result="shape"/>
</filter>
<filter id="filter2_d_112_9740" x="7.96582" y="8.36792" width="9.61816" height="10.772" filterUnits="userSpaceOnUse" color-interpolation-filters="sRGB">
<feFlood flood-opacity="0" result="BackgroundImageFix"/>
<feColorMatrix in="SourceAlpha" type="matrix" values="0 0 0 0 0 0 0 0 0 0 0 0 0 0 0 0 0 0 127 0" result="hardAlpha"/>
<feOffset dy="1"/>
<feColorMatrix type="matrix" values="0 0 0 0 0.898039 0 0 0 0 0.913725 0 0 0 0 0.94902 0 0 0 1 0"/>
<feBlend mode="normal" in2="BackgroundImageFix" result="effect1_dropShadow_112_9740"/>
<feBlend mode="normal" in="SourceGraphic" in2="effect1_dropShadow_112_9740" result="shape"/>
</filter>
<filter id="filter3_d_112_9740" x="7.36377" y="26.312" width="9.52002" height="10.926" filterUnits="userSpaceOnUse" color-interpolation-filters="sRGB">
<feFlood flood-opacity="0" result="BackgroundImageFix"/>
<feColorMatrix in="SourceAlpha" type="matrix" values="0 0 0 0 0 0 0 0 0 0 0 0 0 0 0 0 0 0 127 0" result="hardAlpha"/>
<feOffset dy="1"/>
<feColorMatrix type="matrix" values="0 0 0 0 0.898039 0 0 0 0 0.913725 0 0 0 0 0.94902 0 0 0 1 0"/>
<feBlend mode="normal" in2="BackgroundImageFix" result="effect1_dropShadow_112_9740"/>
<feBlend mode="normal" in="SourceGraphic" in2="effect1_dropShadow_112_9740" result="shape"/>
</filter>
<filter id="filter4_d_112_9740" x="27.3638" y="8.31201" width="9.52002" height="10.926" filterUnits="userSpaceOnUse" color-interpolation-filters="sRGB">
<feFlood flood-opacity="0" result="BackgroundImageFix"/>
<feColorMatrix in="SourceAlpha" type="matrix" values="0 0 0 0 0 0 0 0 0 0 0 0 0 0 0 0 0 0 127 0" result="hardAlpha"/>
<feOffset dy="1"/>
<feColorMatrix type="matrix" values="0 0 0 0 0.898039 0 0 0 0 0.913725 0 0 0 0 0.94902 0 0 0 1 0"/>
<feBlend mode="normal" in2="BackgroundImageFix" result="effect1_dropShadow_112_9740"/>
<feBlend mode="normal" in="SourceGraphic" in2="effect1_dropShadow_112_9740" result="shape"/>
</filter>
</defs>
</svg>
